<svg xmlns="http://www.w3.org/2000/svg" xmlns:xlink="http://www.w3.org/1999/xlink" width="21.618" height="21.881" viewBox="0 0 21.618 21.881">
  <defs>
    <clipPath id="clip-path">
      <rect width="21.618" height="21.881" fill="none"/>
    </clipPath>
  </defs>
  <g id="반복_그리드_2" data-name="반복 그리드 2" clip-path="url(#clip-path)">
    <g id="그룹_4" data-name="그룹 4" transform="translate(-210 -62.118)">
      <g id="빼기_1" data-name="빼기 1" transform="translate(210 54)" fill="none">
        <path d="M11,30A11,11,0,0,1,9.381,8.118,11.009,11.009,0,0,0,20,22a11.131,11.131,0,0,0,1.619-.118A11.018,11.018,0,0,1,11,30Z" stroke="none"/>
        <path d="M 10.99980068206787 27.99970436096191 C 14.09566688537598 27.99970436096191 16.90964317321777 26.40923690795898 18.53945159912109 23.91810989379883 C 12.05603122711182 23.19023895263672 7.000000953674316 17.67440605163574 7.000000953674316 10.99980449676514 C 7.000000953674316 10.97853374481201 7.000052452087402 10.95728588104248 7.000155925750732 10.93602180480957 C 5.946569919586182 11.45970439910889 4.995351314544678 12.19038581848145 4.208730697631836 13.09395408630371 C 2.784410715103149 14.73003387451172 2.000000715255737 16.82747459411621 2.000000715255737 18.99990463256836 C 2.000000715255737 21.40382385253906 2.936140775680542 23.66387367248535 4.635980606079102 25.36371421813965 C 6.335830688476562 27.06356430053711 8.595880508422852 27.99970436096191 10.99980068206787 27.99970436096191 M 10.99980068206787 29.99970436096191 C 8.061660766601562 29.99970436096191 5.299370765686035 28.85552406311035 3.221770763397217 26.77793502807617 C 1.144180774688721 24.7003345489502 7.229614311654586e-07 21.93804359436035 7.229614311654586e-07 18.99990463256836 C 7.229614311654586e-07 16.34473419189453 0.9589707255363464 13.78091430664062 2.700270652770996 11.78073406219482 C 4.424560546875 9.800084114074707 6.797250747680664 8.499423980712891 9.381250381469727 8.118364334106445 C 9.128650665283203 9.051444053649902 9.000000953674316 10.02047443389893 9.000000953674316 10.99980449676514 C 9.000000953674316 17.06511497497559 13.93449115753174 21.99960517883301 19.99981117248535 21.99960517883301 C 20.54156112670898 21.99960517883301 21.08611106872559 21.95981407165527 21.61834144592285 21.88132476806641 C 20.32417106628418 26.66182518005371 15.95721054077148 29.99970436096191 10.99980068206787 29.99970436096191 Z" stroke="none" fill="#ababab"/>
      </g>
    </g>
  </g>
</svg>
